<?xml version="1.0" standalone="no"?>
<!DOCTYPE svg PUBLIC "-//W3C//DTD SVG 20010904//EN"
 "http://www.w3.org/TR/2001/REC-SVG-20010904/DTD/svg10.dtd">
<svg version="1.0" xmlns="http://www.w3.org/2000/svg"
 width="448.000000pt" height="193.000000pt" viewBox="0 0 448.000000 193.000000"
 preserveAspectRatio="xMidYMid meet">
<metadata>
Created by potrace 1.16, written by Peter Selinger 2001-2019
</metadata>
<g transform="translate(0.000000,193.000000) scale(0.100000,-0.100000)"
fill="#36464D" stroke="none">
<path d="M0 965 l0 -965 2240 0 2240 0 0 965 0 965 -2240 0 -2240 0 0 -965z
m1232 718 c45 -44 59 -75 40 -87 -5 -3 -19 8 -31 25 -13 17 -25 28 -28 25 -7
-7 17 -105 28 -111 4 -3 18 13 29 35 24 47 22 48 103 -29 26 -25 47 -51 47
-58 0 -7 4 -13 9 -13 19 0 171 -152 171 -171 0 -11 7 -19 17 -19 20 0 153
-128 153 -147 0 -7 10 -17 23 -24 36 -19 127 -112 127 -131 0 -10 3 -17 8 -16
15 5 55 -25 113 -85 59 -60 60 -61 55 -110 -2 -26 -7 -51 -11 -55 -4 -4 -5 7
-1 23 l7 30 -28 -35 c-37 -46 -86 -98 -78 -83 3 7 -13 37 -37 68 l-42 54 -22
-57 c-29 -77 -72 -162 -83 -162 -5 0 -14 6 -21 14 -9 12 -6 24 14 58 14 24 39
76 56 116 l31 72 -21 23 c-12 12 -38 43 -58 69 -19 26 -37 47 -38 45 -1 -1
-20 -45 -44 -97 -50 -113 -120 -233 -172 -296 -21 -25 -36 -49 -34 -53 3 -4
-4 -7 -15 -7 -11 0 -25 13 -34 33 -17 36 -22 36 -105 -7 -39 -20 -120 -94
-120 -110 0 -4 -25 -1 -55 7 -49 12 -58 12 -77 -1 -22 -16 -21 -16 19 -16 22
0 58 -7 78 -16 27 -11 40 -12 45 -4 4 6 40 12 83 13 50 1 77 6 77 13 0 21 70
74 97 74 l27 0 -32 -33 c-41 -43 -41 -57 2 -57 34 0 35 1 33 40 -2 53 25 87
99 127 81 45 100 43 156 -14 44 -45 52 -65 49 -119 -1 -21 -3 -21 -38 -8 -66
23 -223 12 -223 -16 0 -14 30 -18 165 -25 66 -3 136 -7 155 -10 30 -4 38 -1
60 27 14 18 19 29 12 24 -11 -6 -12 5 -7 61 4 37 12 74 17 81 15 18 38 15 38
-5 0 -10 6 -34 13 -54 l13 -37 32 17 33 17 -51 43 c-51 43 -56 61 -18 61 24 0
102 -75 93 -90 -3 -5 2 -10 11 -10 14 0 15 3 6 12 -18 18 -15 52 6 79 17 20
17 25 4 51 l-14 29 -15 -28 c-26 -51 -39 -59 -62 -39 l-20 19 20 28 c20 28 49
39 49 19 0 -6 6 -5 14 2 14 13 11 32 -4 23 -9 -6 -20 18 -20 46 0 11 4 17 10
14 5 -3 3 13 -5 36 -8 23 -15 51 -16 63 0 11 -3 15 -6 8 -7 -19 -23 -4 -23 23
0 13 -5 25 -10 27 -6 2 -13 21 -16 43 -9 64 -12 69 -29 55 -9 -7 -18 -10 -21
-8 -7 8 42 126 71 170 26 40 23 44 -19 28 -77 -29 38 64 141 115 38 18 90 39
117 46 l48 12 -29 23 -28 23 48 1 c46 0 47 1 47 30 0 17 7 47 16 68 l16 37 9
-26 c7 -19 17 -26 37 -26 15 -1 35 -2 46 -4 22 -5 49 31 28 38 -7 3 -19 11
-26 19 -17 17 -36 18 -36 3 0 -8 -4 -8 -15 1 -8 6 -20 8 -27 4 -10 -6 -10 -4
0 8 20 25 66 32 99 15 51 -27 65 -50 65 -113 1 -58 -13 -81 -55 -97 -8 -3 -3
-11 13 -23 66 -48 123 -112 151 -170 18 -35 36 -61 41 -58 5 3 6 -5 2 -20 -4
-17 1 -37 16 -61 18 -29 19 -35 6 -35 -13 0 -16 -13 -16 -69 0 -72 -25 -222
-42 -254 -7 -14 -13 -16 -21 -8 -8 8 -18 5 -36 -12 -26 -23 -26 -23 -4 30 3 7
-3 10 -16 6 -14 -3 -21 -1 -21 8 0 10 -4 9 -16 -3 -15 -15 -20 -13 -61 18 -24
19 -50 34 -57 34 -14 0 -79 -127 -71 -141 11 -16 19 -10 43 31 13 22 27 38 32
35 6 -3 7 0 4 8 -14 37 18 21 79 -38 36 -36 62 -67 57 -70 -4 -3 -42 -8 -83
-11 -62 -6 -76 -10 -80 -25 -4 -14 0 -19 15 -19 11 0 35 -9 54 -20 l33 -21 -4
33 c-3 22 -1 28 4 19 7 -11 18 -7 53 22 25 20 61 43 81 52 49 20 85 6 150 -60
45 -47 55 -72 41 -109 -8 -22 -24 -10 -24 19 0 15 -11 31 -29 44 -39 28 -50
26 -21 -3 13 -15 20 -31 16 -41 -3 -9 1 -27 10 -40 9 -14 14 -31 11 -39 -4
-10 -1 -13 9 -9 9 3 19 16 24 28 6 15 28 29 67 44 62 23 81 26 155 23 45 -2
47 -3 65 -47 13 -32 22 -43 33 -39 8 3 50 13 92 22 l77 16 28 -26 c23 -21 45
-28 113 -38 47 -6 90 -11 95 -10 6 2 42 1 80 -1 57 -2 45 -4 -60 -10 -214 -11
-367 -26 -374 -35 -10 -14 -100 -37 -161 -41 -30 -2 -109 -8 -175 -13 -66 -6
-151 -13 -190 -15 -39 -2 -85 -11 -104 -21 -28 -14 -72 -17 -284 -20 -234 -3
-314 -13 -241 -29 16 -4 43 -11 59 -16 26 -8 572 -15 615 -8 30 5 213 -1 208
-7 -14 -13 -608 -24 -768 -14 -91 6 -194 12 -230 13 -133 5 -160 7 -160 15 0
7 222 64 304 77 70 11 28 18 -127 21 -209 3 -387 14 -387 25 0 4 17 11 38 14
20 4 50 11 66 16 16 5 41 9 55 10 l26 0 -25 11 c-14 6 -104 12 -200 14 -96 2
-254 6 -350 9 -96 3 -232 7 -303 9 -70 1 -130 6 -134 9 -3 4 5 7 19 7 27 0
190 27 221 36 17 5 17 7 3 23 -9 10 -16 21 -16 24 0 4 -18 47 -40 96 -22 49
-40 102 -40 118 0 25 53 130 80 157 9 9 95 -4 193 -31 43 -12 62 -23 72 -42 8
-14 15 -21 15 -16 6 46 6 81 -1 85 -9 6 -53 309 -46 316 3 3 0 24 -5 47 -15
63 -35 223 -34 272 1 24 -2 41 -5 39 -3 -2 -11 36 -18 84 -6 48 -14 102 -17
120 -4 17 -3 32 2 32 5 0 30 -21 56 -47z"/>
<path d="M1274 1510 l-22 -38 31 -112 31 -112 19 23 c25 30 80 149 73 157 -3
3 -6 2 -6 -3 0 -4 -23 21 -51 56 -28 35 -52 65 -53 66 -1 1 -11 -16 -22 -37z"/>
<path d="M1406 1318 c-15 -33 -44 -78 -64 -101 -20 -22 -32 -38 -25 -34 12 7
19 -14 64 -183 12 -47 26 -89 30 -93 4 -5 26 15 49 45 57 70 154 274 122 254
-11 -6 -18 2 -105 115 l-43 56 -28 -59z"/>
<path d="M2255 1173 c-27 -27 -45 -39 -41 -28 18 46 16 48 -14 15 -18 -19 -55
-59 -82 -87 -44 -47 -49 -57 -46 -90 2 -31 7 -37 22 -35 16 3 18 -1 13 -28
l-7 -31 38 6 c20 4 53 11 72 16 60 15 110 12 110 -8 0 -14 3 -13 16 5 8 12 21
22 28 22 16 0 95 -41 160 -85 60 -40 124 -49 154 -22 10 9 22 14 25 10 4 -3 6
14 6 38 -1 24 -3 35 -6 24 -10 -40 -20 -34 -46 27 -22 55 -26 59 -26 32 -2
-74 -92 -99 -156 -43 -28 25 -35 38 -35 68 0 20 7 46 15 58 18 26 79 41 99 24
7 -6 16 -8 19 -4 4 3 17 -2 28 -13 22 -19 22 -19 14 6 -4 14 -12 36 -17 50
l-10 25 -13 -30 c-7 -16 -14 -23 -14 -15 -1 12 -10 15 -41 12 -52 -5 -53 14
-4 57 27 24 34 36 28 53 -6 20 -7 20 -24 -8 -76 -124 -74 -121 -80 -92 l-5 27
-42 -35 c-24 -20 -43 -44 -43 -55 0 -35 -20 -60 -64 -80 -77 -34 -149 7 -132
74 9 38 52 84 83 90 34 6 86 -14 103 -40 11 -17 11 -17 6 0 -3 10 -6 27 -6 38
0 13 -7 19 -22 19 -18 0 -20 2 -8 9 8 6 18 7 22 5 4 -3 8 4 8 15 0 24 -4 25
-31 11 -22 -12 -27 8 -7 28 7 7 10 12 7 12 -2 0 -27 -21 -54 -47z"/>
<path d="M1562 1047 c-28 -56 -73 -130 -101 -164 -27 -34 -45 -63 -40 -65 5
-2 24 -55 40 -118 17 -63 34 -119 38 -123 18 -18 126 155 200 322 34 79 39 96
27 105 -8 6 -37 41 -64 78 l-50 67 -50 -102z"/>
<path d="M1009 757 c-15 -23 -30 -52 -33 -63 -14 -47 43 -234 78 -256 6 -4 26
7 44 25 25 24 31 27 26 12 -4 -11 -4 -17 0 -14 4 4 9 16 11 29 2 12 9 27 14
34 7 8 -1 34 -24 82 -18 39 -43 99 -55 132 -13 34 -25 62 -29 62 -3 0 -18 -19
-32 -43z"/>
<path d="M2180 538 c0 -7 25 -38 55 -68 56 -56 70 -79 35 -60 -18 10 -18 8 -7
-17 24 -55 61 -93 100 -105 38 -12 39 -11 78 30 41 42 87 62 147 62 38 0 40 9
10 37 -66 60 -144 73 -189 31 -8 -7 -25 -22 -38 -33 l-24 -20 17 32 c9 18 16
36 16 41 0 11 -129 70 -171 79 -21 4 -29 2 -29 -9z"/>
<path d="M2040 429 c-55 -34 -120 -90 -120 -104 0 -19 23 -25 134 -32 102 -6
176 6 176 28 0 27 -36 73 -78 100 -55 35 -66 35 -112 8z"/>
<path d="M3090 396 c-20 -13 -56 -27 -80 -31 -55 -9 -120 -34 -120 -46 0 -5
42 -9 94 -9 89 0 98 2 145 31 28 18 51 35 51 39 0 10 -35 40 -46 39 -5 0 -25
-11 -44 -23z"/>
</g>
</svg>
